<?xml version="1.0" encoding="utf-8"?>
<svg version="1.1" id="Ebene_1" xmlns="http://www.w3.org/2000/svg" xmlns:xlink="http://www.w3.org/1999/xlink" x="0px" y="0px"
	 viewBox="0 0 1440.4 775.3" style="enable-background:new 0 0 1440.4 775.3;" xml:space="preserve">
<path d="M0.1,772.7C0.1,516.3,0.1,256.4,0,0l3.8,0c477.6,0,955.3,0,1432.9,0l3.8,0c-0.1,253.6-0.1,510.8-0.1,764.4
	c-2.5-0.1-4.9-0.3-7.4-0.2c-3.7,0.1-7.8,0.9-11.3-1.1c-1.8-1.1-4.1-1.3-6.1-0.5c-3,1-6.2,0.4-8.6-1.5c-0.7-0.5-0.9-0.8-1.7-0.1
	c-2.8,2.6-5.4,1.3-7.9-0.6c-0.7-0.5-1.2-1.8-2-1.2c-5.2,4-10.5-4.5-15.6,0.3c0,0-0.2-0.1-0.3-0.1c-2.7-1.7-6-0.7-8.9-1.8
	c-4.6-1.7-9.8-0.2-14.5-2.5c-1.8-0.9-3.9-1.7-5.9,0.1c-0.8,0.8-2,0.2-2.7-0.6c-0.7-0.8-1.7-1.2-2.7-0.8c-4,1.6-7.2-0.3-10.7-1.9
	s-6.9-2.1-10.5-0.9c-5.4,1.9-10.9,0.8-16.3,0.8c-1.8,0-3.9-2.5-5.3,0.8c-0.4,0.3-0.9,0.4-1.4,0.2c-1.8-2.2-3.6-1.4-5.6-0.2
	c-0.8,0.5-1.9,0-2.8-0.7c-0.6-0.5-1.4-1.1-2-0.4c-2.6,3.7-6.1,0.3-9.2,0.9c-3,0.6-6.8-0.5-10.2,0.2c-1.7,0.4-3.5,0-4.9-1.1
	c-1.8-1.3-4-2-5.7,0.6c-0.5,0.6-1.2,0.9-1.9,0.9c-3.9-0.8-7.8,0.6-11.5,0c-4.2-0.7-8.4-0.2-12.5-0.1c-1.9,0-3.7,0.7-4.9-1.5
	c-0.4-0.8-2-1.1-2.2-0.2c-1.3,4.5-4.4,1.7-6.8,1.7c-1.4,0-2.9-0.9-4-0.4c-4.4,1.8-9.3,2.4-14,1.7c-0.5-0.1-0.9,0.2-1.1,0.6
	c0,0,0,0,0,0.1c-0.8,2.3-2.6,1.7-4.3,1.5c-4.1-0.4-8.3-1.5-12.4-0.2c-0.5,0.1-1.1,0-1.4,0.3c-2.6,1.5-5,4.2-8.1,0.9
	c-2.7,2.7-6.2,2.2-9.6,2.4c-6.8,0.4-13.4,1.5-20.1,2.4c-3.8,0.5-7.7-0.4-11.5,0.6c-0.6,0.1-1.3,0.1-1.8-0.2c-2.5-1.6-4.6-1.8-7.8-1
	c-3.4,0.7-7,1-10.5,0.6c-6.2-0.5-12.5,0.1-18.8-0.2c-3.4-0.2-6.9-0.7-10.5,0.2c-2.2,0.5-5.3,0.9-7.2-0.9c-2.4-2.2-4.3-1.6-6.6-0.1
	c-1.7,1.1-3.9,2.1-5.7-0.2c-0.2-0.4-0.7-0.7-1.2-0.5c-3.3,0.8-6.8-1.1-10.2,0.8c-1.7,0.9-4.7,1.7-6.2-1.3c-0.4-0.3-0.9-0.3-1.3-0.2
	c-3.7,2.8-8.3,0.5-12.2,2.1c-0.5,0.2-1.5,0.1-1.8-0.3c-3.4-5.5-8.6,2.9-12.1-1.6c-0.1,0.1-0.1,0.2-0.2,0.3c-1.2,1.7-1.8,0.9-2.5-0.5
	c-0.7-1.4-2-0.9-3.3-0.9c-2.5,0.1-4.2,2.9-6.5,2.4c-5.7-1.1-11.9,0.9-17.2-2.8c-0.6-0.4-1.4-0.8-1.8,0.4c-0.6,1.8-2,1.4-3.4,1.5
	c-5.6,0.8-11.1-1.7-16.7-1c-5.3,0.6-10.4,1.3-15.4-1.3c-0.7-0.3-1.5-0.3-2.3-0.1c-2.3,0.3-4.3,4.4-6.9,0.5c-0.2,0.1-0.4,0.2-0.6,0.4
	c-2.4,3.4-4.8,2-7.2,0.1c-1.2-0.9-2.5-1.5-3.8-0.8c-4.5,2.1-9.6,0.2-13.9,1.8c-4.6,1.7-9.2-4.1-13.4,0.5c-0.3,0.2-0.7,0.1-1-0.1
	c-1.9-2.8-3.8-0.9-5.9-0.3c-1.3,0.4-2.9,0.8-4,0.4c-4.9-1.8-10-1.3-14.9-1.3c-2.3,0-4.5-0.9-7,0c-3.5,1.2-7,2.1-10.9,1
	c-2.2-0.5-4.5-0.4-6.6,0.4c-2.4,0.9-4.9,1.6-7.2,0.2c-3.2-2-6.1-1.9-9.1,0.3c-0.3,0.2-0.7,0.2-1.1,0c-4.9-2.4-10.1,0.1-15.1-0.8
	c-1.5-0.3-2.9-0.9-4.7-0.5c-6.1,1.2-12.4,0.4-18.6,1.4c-6.6,1-13.5,0.1-20.1,1.8c-3.9,1-7.7-0.4-11.4,0.2c-2.8,0.5-5.7,0.6-8.6,0.3
	c-2.2-0.2-4.9-0.4-6.7,0.1c-1.9,0.7-4,0.9-6,0.5c-6.5-1.6-13.1,2.9-19.6-0.5c-3.1,3.2-7.3,1.5-10.9,2.4c-2.4,0.6-6.3,1.8-7.1,0.8
	c-2.7-3.2-3.8,1.5-5.6,0.5c-0.4-0.2-1.1-0.2-1.3-0.5c-1.2-1.6-3-1-4.5-1.4c-5.1-1.2-9.1,2.6-14,3.2s-9.6-0.1-14.5,1.2
	c-3.2,0.8-7.6,0.8-11.2-1.3c-0.8-0.4-2.4-0.7-2.5,1.2c-0.1,0.7-0.5,1.4-1.2,1.2c-4.4-1.1-8.7-0.3-12.9,0.6
	c-4.4,0.9-8.7-2.8-13.2-0.1c-1.6,0.9-3.6,0.2-5.7-0.6c-3-1.1-6.3-1-9.1,0.4c-3.8,1.7-8,1.4-12,0.2c-2.4-0.8-5.1-2.3-7-0.5
	c-2.3,2.2-4.1,1.7-6.4,0.7c-3.4-1.5-6.7-0.4-9.9,0.6c-1.7,0.5-3.5,0.6-4.6-0.5c-1.8-1.8-3-1.4-4.8-0.2c-1.1,0.7-2.3,0.9-3.6,0.8
	c-4.3-0.8-8.9,1.4-12.8-1.9c-0.5-0.4-1.3,0-1.6,0.5c-1.1,1.6-2.8,0.6-4.1,1.1c-3.6,1.3-7.4-3.3-10.9,0.6c-0.5,0.6-1.9,0-2.7-0.7
	c-0.7-0.6-1.5-1.1-2.4-0.6c-3.8,2-8,0-11.9,1c-1,0.2-2.1-0.1-2.7-1c-0.4-0.5-1.3-1.2-1.5-0.7c-1.6,3.3-4.5,0.8-6.5,1.6
	c-2.5,1-3.6-2.1-5.5-1.4c-3.6,1.4-6.8,0.1-10.2-0.9c-1.6-0.5-3.5-1.4-4.7-0.5c-2.8,2.1-5.6-2.3-8.2,0.4c-0.2-0.1-0.4-0.2-0.6-0.4
	c-1.9-2.4-3.8-2.3-6-0.2c-0.6,0.4-1.4,0.6-2.1,0.5c-7.6-0.3-15.1-1.4-22.9-0.7c-3.9,0.4-8.7,1.5-12.5-1.6c-0.4-0.3-0.5,0-0.8,0.3
	c-1.3,1.7-2.6,0.8-3.8-0.2c-0.5-0.4-1.2-1.4-1.8-0.5c-1.4,2.3-2.8,0.9-4.1,0.1c-2.7-1.8-5.5-1.1-8.2-0.2c-1.5,0.5-3.1,0.2-4.3,0.7
	c-4.1,1.6-7.7-3.8-11.7-0.5c-0.1,0.1-0.3,0-0.4-0.1c-2.4-1.5-5-0.8-7.6-0.5c-0.8,0.1-1.6,0.3-2.2-0.2c-2.6-2.7-5.3-1.7-8-0.3
	c-0.9,0.5-2.2,1-2.8,0.3c-3.2-3.1-6.4-1.3-9.6-0.1c-0.7,0.3-1.4,0.4-2.2,0.2c-3.2-1.3-6.2-1.7-9.9-0.7c-3.6,1.1-7.6,0.2-11.4,0.6
	c-3.6,0.3-6.8-2.3-10.6-1c-2.3,0.8-5.2-1.3-6.8-0.9c-4.4,0.9-8.6-1.1-12.8,0.1c-1.6,0.5-3.6,1.4-5.1,0.3c-3.8-2.7-7.7-0.7-11.4-0.1
	c-2.3,0.3-3.5,0.3-4.3-3.3c-0.8,4-2.3,4.3-4.2,2.6c-0.6-0.5-1.4-1.1-2-0.7c-3.5,2.5-7.7,2-11.4,1.8c-6-0.3-12.2,1.3-18-1.1
	c-0.6-0.3-0.9,0.1-1.1,0.6c-0.9,1.8-2.5,1.4-3.9,1.1c-2.3-0.5-4.6-0.6-7-0.4c-2.8,0.2-5.7,0.1-8.5,0.3c-5.5,0.4-11-1.4-16.6-0.3
	c-1.1,0.1-2.2,0.1-3.3-0.1c-5.5-0.8-11,0.2-16.4,0c-4.1-0.2-8.3,1.9-12.3-0.5c-0.9-0.5-3.3-1.4-4.5,0c-2.2,2.6-4.9,1.7-7.4,1.3
	c-2.5-0.4-4.8-1-7.3,0c-1.6,0.6-3.5,1.1-5.2,0.5c-6-1.9-12.3,2.1-18.3-0.8c-0.3-0.2-1,0.1-1.4,0.4c-5.1,4.6-11.6-0.6-16.9,2.4
	c-0.2,0.1-0.7-0.3-1-0.5c-1.5-0.9-3.2-3.4-4,0.8c-0.1,0.8-1.4,0.5-1.9-0.1c-1.6-2-3.3-1-4.6,0.1c-2.3,1.8-4.7,1.7-7.1,1.1
	c-0.8-0.3-1.6-0.2-2.4,0.1c-4.2,2.3-9-1.7-13.2,1c-0.1,0.1-0.5-0.1-0.7-0.2c-1.7-2-3.5-1-5.4-0.2c-1.6,0.7-3.3,2.3-4.7-0.4
	c-0.3-0.4-0.9-0.5-1.4-0.1c-0.2,0.2-0.3,0.4-0.3,0.6c-0.8,2.5-2.9,2.2-4.8,2.4c-3.7,0.3-7.4-0.3-11,1c-1.4,0.6-3,0.6-4.4,0.1
	c-3.1-1.5-6.7-1.3-9.7,0.4c-1.1,0.6-2.4,0.8-3.6,0.6c-6.9-0.9-13.8,0.2-20.7,0c-5.3-0.1-10.7-1.9-16.1,0.2c-1.1,0.4-1.9-0.3-2.4-1.3
	c-0.6-1.1-2.2-2-2.6-1.2C4.6,776.9,2.4,773.3,0.1,772.7L0.1,772.7z"/>
</svg>
